<svg xmlns="http://www.w3.org/2000/svg" xmlns:xlink="http://www.w3.org/1999/xlink" width="50" zoomAndPan="magnify" viewBox="0 0 37.5 37.499999" height="50" preserveAspectRatio="xMidYMid meet" version="1.2"><defs><clipPath id="7802f2a722"><path d="M 2.480469 2.480469 L 34.304688 2.480469 L 34.304688 34.304688 L 2.480469 34.304688 Z M 2.480469 2.480469 "/></clipPath></defs><g id="70a0a4a5e2"><g clip-rule="nonzero" clip-path="url(#7802f2a722)"><path style=" stroke:none;fill-rule:nonzero;fill:#ffffff;fill-opacity:1;" d="M 18.390625 2.480469 C 9.605469 2.480469 2.480469 9.605469 2.480469 18.390625 C 2.480469 27.179688 9.605469 34.304688 18.390625 34.304688 C 27.179688 34.304688 34.304688 27.179688 34.304688 18.390625 C 34.304688 9.605469 27.179688 2.480469 18.390625 2.480469 Z M 24.757812 19.984375 L 15.867188 19.984375 L 18.390625 22.507812 C 19.011719 23.128906 19.011719 24.136719 18.390625 24.757812 C 17.773438 25.378906 16.761719 25.378906 16.140625 24.757812 L 10.902344 19.515625 C 10.28125 18.894531 10.28125 17.886719 10.902344 17.265625 L 16.140625 12.027344 C 16.761719 11.40625 17.773438 11.40625 18.390625 12.027344 C 19.011719 12.648438 19.011719 13.65625 18.390625 14.277344 L 15.867188 16.800781 L 24.757812 16.800781 C 25.636719 16.800781 26.347656 17.515625 26.347656 18.390625 C 26.347656 19.269531 25.636719 19.984375 24.757812 19.984375 Z M 24.757812 19.984375 "/></g></g></svg>