<svg xmlns="http://www.w3.org/2000/svg" xmlns:xlink="http://www.w3.org/1999/xlink" width="50" zoomAndPan="magnify" viewBox="0 0 37.5 37.499999" height="50" preserveAspectRatio="xMidYMid meet" version="1.2"><defs><clipPath id="ab283ce4b5"><path d="M 11.101562 11.84375 L 25.90625 11.84375 L 25.90625 25.164062 L 11.101562 25.164062 Z M 11.101562 11.84375 "/></clipPath></defs><g id="400bd9a27a"><g clip-rule="nonzero" clip-path="url(#ab283ce4b5)"><path style=" stroke:none;fill-rule:nonzero;fill:#000000;fill-opacity:1;" d="M 11.84375 11.84375 L 25.164062 11.84375 C 25.367188 11.84375 25.542969 11.914062 25.6875 12.058594 C 25.832031 12.203125 25.90625 12.378906 25.90625 12.582031 L 25.90625 24.425781 C 25.90625 24.628906 25.832031 24.804688 25.6875 24.949219 C 25.542969 25.09375 25.367188 25.164062 25.164062 25.164062 L 20.722656 25.164062 C 20.722656 24.667969 20.6875 24.175781 20.609375 23.683594 L 24.425781 23.683594 L 24.425781 13.324219 L 12.582031 13.324219 L 12.582031 15.65625 C 12.089844 15.582031 11.597656 15.542969 11.101562 15.542969 L 11.101562 12.582031 C 11.101562 12.378906 11.175781 12.203125 11.320312 12.058594 C 11.464844 11.914062 11.636719 11.84375 11.84375 11.84375 Z M 19.242188 25.164062 L 17.761719 25.164062 C 17.761719 24.726562 17.71875 24.292969 17.636719 23.863281 C 17.550781 23.4375 17.421875 23.019531 17.257812 22.617188 C 17.089844 22.210938 16.882812 21.828125 16.640625 21.464844 C 16.398438 21.101562 16.121094 20.761719 15.8125 20.453125 C 15.503906 20.144531 15.167969 19.867188 14.800781 19.625 C 14.4375 19.382812 14.054688 19.175781 13.652344 19.011719 C 13.246094 18.84375 12.832031 18.714844 12.402344 18.632812 C 11.972656 18.546875 11.539062 18.503906 11.101562 18.503906 L 11.101562 17.023438 C 15.597656 17.023438 19.242188 20.667969 19.242188 25.164062 Z M 16.28125 25.164062 L 14.800781 25.164062 C 14.800781 24.671875 14.707031 24.203125 14.519531 23.75 C 14.332031 23.292969 14.066406 22.894531 13.71875 22.546875 C 13.371094 22.199219 12.972656 21.933594 12.519531 21.746094 C 12.066406 21.558594 11.59375 21.464844 11.101562 21.464844 L 11.101562 19.984375 C 11.441406 19.984375 11.777344 20.015625 12.113281 20.082031 C 12.445312 20.148438 12.769531 20.246094 13.085938 20.378906 C 13.398438 20.507812 13.699219 20.667969 13.980469 20.855469 C 14.261719 21.046875 14.523438 21.261719 14.765625 21.5 C 15.007812 21.742188 15.222656 22.003906 15.410156 22.285156 C 15.597656 22.570312 15.757812 22.867188 15.886719 23.183594 C 16.019531 23.496094 16.117188 23.820312 16.183594 24.152344 C 16.25 24.488281 16.28125 24.824219 16.28125 25.164062 Z M 13.324219 25.164062 L 11.101562 25.164062 L 11.101562 22.945312 C 11.394531 22.945312 11.679688 23 11.953125 23.113281 C 12.222656 23.226562 12.464844 23.386719 12.671875 23.59375 C 12.878906 23.800781 13.039062 24.042969 13.152344 24.316406 C 13.265625 24.585938 13.324219 24.871094 13.324219 25.164062 Z M 13.324219 25.164062 "/></g></g></svg>