<svg xmlns="http://www.w3.org/2000/svg" xmlns:xlink="http://www.w3.org/1999/xlink" width="50" zoomAndPan="magnify" viewBox="0 0 37.5 37.499999" height="50" preserveAspectRatio="xMidYMid meet" version="1.2"><defs><clipPath id="f5da6fcbc7"><path d="M 2.589844 2.589844 L 34.417969 2.589844 L 34.417969 34.417969 L 2.589844 34.417969 Z M 2.589844 2.589844 "/></clipPath></defs><g id="de096a3bfe"><g clip-rule="nonzero" clip-path="url(#f5da6fcbc7)"><path style=" stroke:none;fill-rule:nonzero;fill:#ffffff;fill-opacity:1;" d="M 18.503906 2.589844 C 17.980469 2.589844 17.460938 2.617188 16.945312 2.667969 C 16.425781 2.71875 15.910156 2.792969 15.398438 2.894531 C 14.886719 2.996094 14.382812 3.125 13.882812 3.277344 C 13.386719 3.425781 12.894531 3.601562 12.414062 3.800781 C 11.933594 4 11.460938 4.222656 11.003906 4.46875 C 10.542969 4.714844 10.097656 4.984375 9.664062 5.273438 C 9.230469 5.5625 8.8125 5.871094 8.410156 6.203125 C 8.003906 6.53125 7.621094 6.882812 7.25 7.25 C 6.882812 7.621094 6.53125 8.003906 6.203125 8.410156 C 5.871094 8.8125 5.5625 9.230469 5.273438 9.664062 C 4.984375 10.097656 4.714844 10.542969 4.46875 11.003906 C 4.222656 11.460938 4 11.933594 3.800781 12.414062 C 3.601562 12.894531 3.425781 13.386719 3.277344 13.882812 C 3.125 14.382812 2.996094 14.886719 2.894531 15.398438 C 2.792969 15.910156 2.71875 16.425781 2.667969 16.945312 C 2.617188 17.460938 2.589844 17.980469 2.589844 18.503906 C 2.589844 19.023438 2.617188 19.542969 2.667969 20.0625 C 2.71875 20.582031 2.792969 21.097656 2.894531 21.609375 C 2.996094 22.117188 3.125 22.625 3.277344 23.121094 C 3.425781 23.621094 3.601562 24.113281 3.800781 24.59375 C 4 25.074219 4.222656 25.542969 4.46875 26.003906 C 4.714844 26.464844 4.984375 26.910156 5.273438 27.34375 C 5.5625 27.777344 5.871094 28.195312 6.203125 28.597656 C 6.53125 29 6.882812 29.386719 7.25 29.753906 C 7.621094 30.125 8.003906 30.472656 8.410156 30.804688 C 8.8125 31.132812 9.230469 31.445312 9.664062 31.734375 C 10.097656 32.023438 10.542969 32.292969 11.003906 32.539062 C 11.460938 32.78125 11.933594 33.003906 12.414062 33.203125 C 12.894531 33.402344 13.386719 33.578125 13.882812 33.730469 C 14.382812 33.882812 14.886719 34.007812 15.398438 34.109375 C 15.910156 34.210938 16.425781 34.289062 16.945312 34.339844 C 17.460938 34.390625 17.980469 34.417969 18.503906 34.417969 C 19.023438 34.417969 19.542969 34.390625 20.0625 34.339844 C 20.582031 34.289062 21.097656 34.210938 21.609375 34.109375 C 22.117188 34.007812 22.625 33.882812 23.121094 33.730469 C 23.621094 33.578125 24.113281 33.402344 24.59375 33.203125 C 25.074219 33.003906 25.542969 32.78125 26.003906 32.539062 C 26.464844 32.292969 26.910156 32.023438 27.34375 31.734375 C 27.777344 31.445312 28.195312 31.132812 28.597656 30.804688 C 29 30.472656 29.386719 30.125 29.753906 29.753906 C 30.125 29.386719 30.472656 29 30.804688 28.597656 C 31.132812 28.195312 31.445312 27.777344 31.734375 27.34375 C 32.023438 26.910156 32.292969 26.464844 32.539062 26.003906 C 32.78125 25.542969 33.003906 25.074219 33.203125 24.59375 C 33.402344 24.113281 33.578125 23.621094 33.730469 23.121094 C 33.882812 22.625 34.007812 22.117188 34.109375 21.609375 C 34.210938 21.097656 34.289062 20.582031 34.339844 20.0625 C 34.390625 19.542969 34.417969 19.023438 34.417969 18.503906 C 34.414062 17.980469 34.390625 17.460938 34.335938 16.945312 C 34.285156 16.425781 34.210938 15.910156 34.105469 15.398438 C 34.003906 14.890625 33.878906 14.382812 33.726562 13.886719 C 33.574219 13.386719 33.398438 12.898438 33.199219 12.417969 C 33 11.933594 32.777344 11.464844 32.53125 11.003906 C 32.285156 10.546875 32.019531 10.101562 31.730469 9.667969 C 31.4375 9.234375 31.128906 8.816406 30.796875 8.414062 C 30.46875 8.011719 30.117188 7.625 29.75 7.257812 C 29.382812 6.886719 28.996094 6.539062 28.59375 6.207031 C 28.191406 5.878906 27.773438 5.566406 27.339844 5.277344 C 26.90625 4.988281 26.460938 4.71875 26 4.476562 C 25.542969 4.230469 25.070312 4.007812 24.589844 3.804688 C 24.109375 3.605469 23.617188 3.429688 23.121094 3.28125 C 22.621094 3.128906 22.117188 3 21.605469 2.898438 C 21.09375 2.796875 20.582031 2.71875 20.0625 2.667969 C 19.542969 2.617188 19.023438 2.589844 18.503906 2.589844 Z M 16.382812 28.050781 L 13.160156 28.050781 C 12.882812 28.050781 12.609375 28.023438 12.339844 27.96875 C 12.070312 27.914062 11.804688 27.835938 11.550781 27.730469 C 11.296875 27.625 11.054688 27.496094 10.824219 27.339844 C 10.59375 27.1875 10.382812 27.015625 10.1875 26.820312 C 9.992188 26.625 9.820312 26.410156 9.664062 26.183594 C 9.511719 25.953125 9.382812 25.710938 9.277344 25.457031 C 9.171875 25.199219 9.089844 24.9375 9.035156 24.667969 C 8.984375 24.398438 8.957031 24.125 8.957031 23.847656 L 8.957031 20.625 C 8.957031 20.484375 8.984375 20.347656 9.035156 20.21875 C 9.089844 20.089844 9.167969 19.972656 9.265625 19.875 C 9.367188 19.773438 9.480469 19.699219 9.609375 19.644531 C 9.742188 19.589844 9.875 19.5625 10.015625 19.5625 C 10.15625 19.5625 10.292969 19.589844 10.421875 19.644531 C 10.550781 19.699219 10.667969 19.773438 10.765625 19.875 C 10.867188 19.972656 10.941406 20.089844 10.996094 20.21875 C 11.050781 20.347656 11.078125 20.484375 11.078125 20.625 L 11.078125 23.847656 C 11.078125 24.125 11.128906 24.390625 11.234375 24.644531 C 11.34375 24.898438 11.492188 25.125 11.6875 25.320312 C 11.882812 25.515625 12.109375 25.664062 12.363281 25.769531 C 12.617188 25.875 12.882812 25.929688 13.160156 25.929688 L 16.382812 25.929688 C 16.523438 25.929688 16.65625 25.957031 16.789062 26.011719 C 16.917969 26.0625 17.03125 26.140625 17.132812 26.238281 C 17.230469 26.339844 17.308594 26.453125 17.363281 26.585938 C 17.414062 26.714844 17.441406 26.847656 17.441406 26.988281 C 17.441406 27.128906 17.414062 27.265625 17.363281 27.394531 C 17.308594 27.527344 17.230469 27.640625 17.132812 27.742188 C 17.03125 27.839844 16.917969 27.917969 16.789062 27.96875 C 16.65625 28.023438 16.523438 28.050781 16.382812 28.050781 Z M 16.382812 11.078125 L 13.160156 11.078125 C 12.882812 11.078125 12.617188 11.128906 12.363281 11.234375 C 12.109375 11.34375 11.882812 11.492188 11.6875 11.6875 C 11.492188 11.882812 11.34375 12.109375 11.234375 12.363281 C 11.128906 12.617188 11.078125 12.882812 11.078125 13.160156 L 11.078125 16.382812 C 11.078125 16.523438 11.050781 16.65625 10.996094 16.789062 C 10.941406 16.917969 10.867188 17.03125 10.765625 17.132812 C 10.667969 17.230469 10.550781 17.308594 10.421875 17.363281 C 10.292969 17.414062 10.15625 17.441406 10.015625 17.441406 C 9.875 17.441406 9.742188 17.414062 9.609375 17.363281 C 9.480469 17.308594 9.367188 17.230469 9.265625 17.132812 C 9.167969 17.03125 9.089844 16.917969 9.035156 16.789062 C 8.984375 16.65625 8.957031 16.523438 8.957031 16.382812 L 8.957031 13.160156 C 8.957031 12.882812 8.984375 12.609375 9.035156 12.339844 C 9.089844 12.070312 9.171875 11.804688 9.277344 11.550781 C 9.382812 11.296875 9.511719 11.054688 9.664062 10.824219 C 9.820312 10.59375 9.992188 10.382812 10.1875 10.1875 C 10.382812 9.992188 10.59375 9.820312 10.824219 9.664062 C 11.054688 9.511719 11.296875 9.382812 11.550781 9.277344 C 11.804688 9.171875 12.070312 9.089844 12.339844 9.035156 C 12.609375 8.984375 12.882812 8.957031 13.160156 8.957031 L 16.382812 8.957031 C 16.523438 8.957031 16.65625 8.984375 16.789062 9.035156 C 16.917969 9.089844 17.03125 9.167969 17.132812 9.265625 C 17.230469 9.367188 17.308594 9.480469 17.363281 9.609375 C 17.414062 9.742188 17.441406 9.875 17.441406 10.015625 C 17.441406 10.15625 17.414062 10.292969 17.363281 10.421875 C 17.308594 10.550781 17.230469 10.667969 17.132812 10.765625 C 17.03125 10.867188 16.917969 10.941406 16.789062 10.996094 C 16.65625 11.050781 16.523438 11.078125 16.382812 11.078125 Z M 28.050781 23.847656 C 28.050781 24.125 28.023438 24.398438 27.96875 24.667969 C 27.914062 24.9375 27.835938 25.199219 27.730469 25.457031 C 27.625 25.710938 27.496094 25.953125 27.339844 26.183594 C 27.1875 26.410156 27.015625 26.625 26.820312 26.820312 C 26.625 27.015625 26.410156 27.1875 26.183594 27.339844 C 25.953125 27.496094 25.710938 27.625 25.457031 27.730469 C 25.199219 27.835938 24.9375 27.914062 24.667969 27.96875 C 24.398438 28.023438 24.125 28.050781 23.847656 28.050781 L 20.625 28.050781 C 20.484375 28.050781 20.347656 28.023438 20.21875 27.96875 C 20.089844 27.917969 19.972656 27.839844 19.875 27.742188 C 19.773438 27.640625 19.699219 27.527344 19.644531 27.394531 C 19.589844 27.265625 19.5625 27.128906 19.5625 26.988281 C 19.5625 26.847656 19.589844 26.714844 19.644531 26.585938 C 19.699219 26.453125 19.773438 26.339844 19.875 26.238281 C 19.972656 26.140625 20.089844 26.0625 20.21875 26.011719 C 20.347656 25.957031 20.484375 25.929688 20.625 25.929688 L 23.847656 25.929688 C 24.125 25.929688 24.390625 25.875 24.644531 25.769531 C 24.898438 25.664062 25.125 25.515625 25.320312 25.320312 C 25.515625 25.125 25.664062 24.898438 25.769531 24.644531 C 25.875 24.390625 25.929688 24.125 25.929688 23.847656 L 25.929688 20.625 C 25.929688 20.484375 25.957031 20.347656 26.011719 20.21875 C 26.0625 20.089844 26.140625 19.972656 26.238281 19.875 C 26.339844 19.773438 26.453125 19.699219 26.585938 19.644531 C 26.714844 19.589844 26.847656 19.5625 26.988281 19.5625 C 27.128906 19.5625 27.265625 19.589844 27.394531 19.644531 C 27.527344 19.699219 27.640625 19.773438 27.742188 19.875 C 27.839844 19.972656 27.917969 20.089844 27.96875 20.21875 C 28.023438 20.347656 28.050781 20.484375 28.050781 20.625 Z M 28.050781 16.382812 C 28.050781 16.523438 28.023438 16.65625 27.96875 16.789062 C 27.917969 16.917969 27.839844 17.03125 27.742188 17.132812 C 27.640625 17.230469 27.527344 17.308594 27.394531 17.363281 C 27.265625 17.414062 27.128906 17.441406 26.988281 17.441406 C 26.847656 17.441406 26.714844 17.414062 26.585938 17.363281 C 26.453125 17.308594 26.339844 17.230469 26.238281 17.132812 C 26.140625 17.03125 26.0625 16.917969 26.011719 16.789062 C 25.957031 16.65625 25.929688 16.523438 25.929688 16.382812 L 25.929688 13.160156 C 25.929688 12.882812 25.875 12.617188 25.769531 12.363281 C 25.664062 12.109375 25.515625 11.882812 25.320312 11.6875 C 25.125 11.492188 24.898438 11.34375 24.644531 11.234375 C 24.390625 11.128906 24.125 11.078125 23.847656 11.078125 L 20.625 11.078125 C 20.484375 11.078125 20.347656 11.050781 20.21875 10.996094 C 20.089844 10.941406 19.972656 10.867188 19.875 10.765625 C 19.773438 10.667969 19.699219 10.550781 19.644531 10.421875 C 19.589844 10.292969 19.5625 10.15625 19.5625 10.015625 C 19.5625 9.875 19.589844 9.742188 19.644531 9.609375 C 19.699219 9.480469 19.773438 9.367188 19.875 9.265625 C 19.972656 9.167969 20.089844 9.089844 20.21875 9.035156 C 20.347656 8.984375 20.484375 8.957031 20.625 8.957031 L 23.847656 8.957031 C 24.125 8.957031 24.398438 8.984375 24.667969 9.035156 C 24.9375 9.089844 25.199219 9.171875 25.457031 9.277344 C 25.710938 9.382812 25.953125 9.511719 26.183594 9.664062 C 26.410156 9.820312 26.625 9.992188 26.820312 10.1875 C 27.015625 10.382812 27.1875 10.59375 27.339844 10.824219 C 27.496094 11.054688 27.625 11.296875 27.730469 11.550781 C 27.835938 11.804688 27.914062 12.070312 27.96875 12.339844 C 28.023438 12.609375 28.050781 12.882812 28.050781 13.160156 Z M 28.050781 16.382812 "/></g></g></svg>