<svg xmlns="http://www.w3.org/2000/svg" xmlns:xlink="http://www.w3.org/1999/xlink" width="50" zoomAndPan="magnify" viewBox="0 0 37.5 37.499999" height="50" preserveAspectRatio="xMidYMid meet" version="1.2"><defs><clipPath id="035a419775"><path d="M 3.699219 3.699219 L 33.304688 3.699219 L 33.304688 33.304688 L 3.699219 33.304688 Z M 3.699219 3.699219 "/></clipPath></defs><g id="d51969595f"><g clip-rule="nonzero" clip-path="url(#035a419775)"><path style=" stroke:none;fill-rule:nonzero;fill:#ffffff;fill-opacity:1;" d="M 18.503906 3.703125 C 10.34375 3.703125 3.703125 10.34375 3.703125 18.503906 C 3.703125 26.664062 10.34375 33.300781 18.503906 33.300781 C 26.664062 33.300781 33.300781 26.664062 33.300781 18.503906 C 33.300781 10.34375 26.664062 3.703125 18.503906 3.703125 Z M 18.515625 5.289062 C 18.511719 5.289062 18.507812 5.289062 18.503906 5.289062 C 18.507812 5.289062 18.511719 5.289062 18.515625 5.289062 Z M 5.289062 18.503906 C 5.289062 18.507812 5.289062 18.511719 5.289062 18.515625 C 5.289062 18.511719 5.289062 18.507812 5.289062 18.503906 Z M 18.503906 31.71875 C 18.507812 31.71875 18.511719 31.71875 18.515625 31.71875 C 18.511719 31.71875 18.507812 31.71875 18.503906 31.71875 Z M 31.71875 18.515625 C 31.71875 18.511719 31.71875 18.507812 31.71875 18.503906 C 31.71875 18.507812 31.71875 18.511719 31.71875 18.515625 Z M 31.71875 18.515625 "/></g><path style=" stroke:none;fill-rule:nonzero;fill:#000000;fill-opacity:1;" d="M 20.570312 18.503906 C 20.570312 18.777344 20.519531 19.042969 20.414062 19.292969 C 20.308594 19.546875 20.160156 19.769531 19.964844 19.964844 C 19.769531 20.160156 19.546875 20.308594 19.292969 20.414062 C 19.042969 20.519531 18.777344 20.570312 18.503906 20.570312 C 18.230469 20.570312 17.964844 20.519531 17.710938 20.414062 C 17.457031 20.308594 17.234375 20.160156 17.042969 19.964844 C 16.847656 19.769531 16.699219 19.546875 16.59375 19.292969 C 16.488281 19.042969 16.4375 18.777344 16.4375 18.503906 C 16.4375 18.230469 16.488281 17.964844 16.59375 17.710938 C 16.699219 17.457031 16.847656 17.234375 17.042969 17.042969 C 17.234375 16.847656 17.457031 16.699219 17.710938 16.59375 C 17.964844 16.488281 18.230469 16.4375 18.503906 16.4375 C 18.777344 16.4375 19.042969 16.488281 19.292969 16.59375 C 19.546875 16.699219 19.769531 16.847656 19.964844 17.042969 C 20.160156 17.234375 20.308594 17.457031 20.414062 17.710938 C 20.519531 17.964844 20.570312 18.230469 20.570312 18.503906 Z M 20.570312 18.503906 "/><path style=" stroke:none;fill-rule:nonzero;fill:#000000;fill-opacity:1;" d="M 13.167969 18.503906 C 13.167969 18.777344 13.117188 19.042969 13.011719 19.292969 C 12.90625 19.546875 12.757812 19.769531 12.5625 19.964844 C 12.371094 20.160156 12.144531 20.308594 11.894531 20.414062 C 11.640625 20.519531 11.375 20.570312 11.101562 20.570312 C 10.828125 20.570312 10.5625 20.519531 10.308594 20.414062 C 10.058594 20.308594 9.832031 20.160156 9.640625 19.964844 C 9.445312 19.769531 9.296875 19.546875 9.191406 19.292969 C 9.085938 19.042969 9.035156 18.777344 9.035156 18.503906 C 9.035156 18.230469 9.085938 17.964844 9.191406 17.710938 C 9.296875 17.457031 9.445312 17.234375 9.640625 17.042969 C 9.832031 16.847656 10.058594 16.699219 10.308594 16.59375 C 10.5625 16.488281 10.828125 16.4375 11.101562 16.4375 C 11.375 16.4375 11.640625 16.488281 11.894531 16.59375 C 12.144531 16.699219 12.371094 16.847656 12.5625 17.042969 C 12.757812 17.234375 12.90625 17.457031 13.011719 17.710938 C 13.117188 17.964844 13.167969 18.230469 13.167969 18.503906 Z M 13.167969 18.503906 "/><path style=" stroke:none;fill-rule:nonzero;fill:#000000;fill-opacity:1;" d="M 27.972656 18.503906 C 27.972656 18.777344 27.921875 19.042969 27.816406 19.292969 C 27.710938 19.546875 27.5625 19.769531 27.367188 19.964844 C 27.171875 20.160156 26.949219 20.308594 26.695312 20.414062 C 26.441406 20.519531 26.179688 20.570312 25.90625 20.570312 C 25.632812 20.570312 25.367188 20.519531 25.113281 20.414062 C 24.859375 20.308594 24.636719 20.160156 24.441406 19.964844 C 24.25 19.769531 24.101562 19.546875 23.996094 19.292969 C 23.890625 19.042969 23.835938 18.777344 23.835938 18.503906 C 23.835938 18.230469 23.890625 17.964844 23.996094 17.710938 C 24.101562 17.457031 24.25 17.234375 24.441406 17.042969 C 24.636719 16.847656 24.859375 16.699219 25.113281 16.59375 C 25.367188 16.488281 25.632812 16.4375 25.90625 16.4375 C 26.179688 16.4375 26.441406 16.488281 26.695312 16.59375 C 26.949219 16.699219 27.171875 16.847656 27.367188 17.042969 C 27.5625 17.234375 27.710938 17.457031 27.816406 17.710938 C 27.921875 17.964844 27.972656 18.230469 27.972656 18.503906 Z M 27.972656 18.503906 "/></g></svg>