<svg xmlns="http://www.w3.org/2000/svg" xmlns:xlink="http://www.w3.org/1999/xlink" width="50" zoomAndPan="magnify" viewBox="0 0 37.5 37.499999" height="50" preserveAspectRatio="xMidYMid meet" version="1.2"><defs><clipPath id="195dd266d9"><path d="M 2.292969 2.292969 L 34.710938 2.292969 L 34.710938 34.859375 L 2.292969 34.859375 Z M 2.292969 2.292969 "/></clipPath></defs><g id="91017392d6"><g clip-rule="nonzero" clip-path="url(#195dd266d9)"><path style=" stroke:none;fill-rule:nonzero;fill:#ffffff;fill-opacity:1;" d="M 18.527344 2.277344 C 27.472656 2.277344 34.726562 9.53125 34.726562 18.476562 C 34.726562 27.421875 27.472656 34.671875 18.527344 34.671875 C 9.582031 34.671875 2.332031 27.421875 2.332031 18.476562 C 2.332031 9.53125 9.582031 2.277344 18.527344 2.277344 Z M 10.433594 26.375 C 10.433594 27.035156 11.167969 27.433594 11.71875 27.066406 L 23.253906 19.378906 L 23.253906 24.550781 C 23.253906 25.671875 24.160156 26.578125 25.277344 26.578125 C 26.398438 26.578125 27.304688 25.671875 27.304688 24.550781 L 27.304688 12.402344 C 27.304688 11.28125 26.398438 10.375 25.277344 10.375 C 24.160156 10.375 23.253906 11.28125 23.253906 12.402344 L 23.253906 17.574219 L 11.71875 9.886719 C 11.167969 9.519531 10.433594 9.910156 10.433594 10.574219 Z M 10.433594 26.375 "/></g></g></svg>