<svg xmlns="http://www.w3.org/2000/svg" xmlns:xlink="http://www.w3.org/1999/xlink" width="50" zoomAndPan="magnify" viewBox="0 0 37.5 37.499999" height="50" preserveAspectRatio="xMidYMid meet" version="1.2"><defs><clipPath id="bb5de3ca1d"><path d="M 2.074219 2.074219 L 34.636719 2.074219 L 34.636719 34.636719 L 2.074219 34.636719 Z M 2.074219 2.074219 "/></clipPath><clipPath id="f96046e559"><path d="M 2.074219 18.503906 C 2.074219 27.578125 9.429688 34.933594 18.503906 34.933594 C 22.859375 34.933594 27.039062 33.203125 30.121094 30.121094 C 33.203125 27.039062 34.933594 22.859375 34.933594 18.503906 C 34.933594 14.144531 33.203125 9.964844 30.121094 6.886719 C 27.039062 3.804688 22.859375 2.074219 18.503906 2.074219 C 9.429688 2.074219 2.074219 9.429688 2.074219 18.503906 Z M 2.074219 18.503906 "/></clipPath></defs><g id="7653f8d08f"><g clip-rule="nonzero" clip-path="url(#bb5de3ca1d)"><g clip-rule="nonzero" clip-path="url(#f96046e559)"><path style=" stroke:none;fill-rule:evenodd;fill:#ffffff;fill-opacity:1;" d="M 18.355469 34.636719 C 27.347656 34.636719 34.636719 27.347656 34.636719 18.355469 C 34.636719 9.363281 27.347656 2.074219 18.355469 2.074219 C 9.363281 2.074219 2.074219 9.363281 2.074219 18.355469 C 2.074219 27.347656 9.363281 34.636719 18.355469 34.636719 Z M 10.132812 12.109375 C 10.417969 11.980469 10.746094 12.03125 10.980469 12.234375 L 17.296875 17.761719 C 17.46875 17.910156 17.566406 18.128906 17.566406 18.355469 C 17.566406 18.582031 17.46875 18.800781 17.296875 18.949219 L 10.980469 24.476562 C 10.746094 24.679688 10.417969 24.726562 10.132812 24.601562 C 9.851562 24.472656 9.671875 24.191406 9.671875 23.882812 L 9.671875 12.828125 C 9.671875 12.519531 9.851562 12.238281 10.132812 12.109375 Z M 19.144531 12.039062 C 18.707031 12.039062 18.355469 12.394531 18.355469 12.828125 L 18.355469 23.882812 C 18.355469 24.316406 18.707031 24.671875 19.144531 24.671875 L 21.511719 24.671875 C 21.949219 24.671875 22.300781 24.316406 22.300781 23.882812 L 22.300781 12.828125 C 22.300781 12.394531 21.949219 12.039062 21.511719 12.039062 Z M 23.09375 12.828125 C 23.09375 12.394531 23.445312 12.039062 23.882812 12.039062 L 26.25 12.039062 C 26.6875 12.039062 27.039062 12.394531 27.039062 12.828125 L 27.039062 23.882812 C 27.039062 24.316406 26.6875 24.671875 26.25 24.671875 L 23.882812 24.671875 C 23.445312 24.671875 23.09375 24.316406 23.09375 23.882812 Z M 23.09375 12.828125 "/></g></g></g></svg>