<svg xmlns="http://www.w3.org/2000/svg" xmlns:xlink="http://www.w3.org/1999/xlink" width="50" zoomAndPan="magnify" viewBox="0 0 37.5 37.499999" height="50" preserveAspectRatio="xMidYMid meet" version="1.2"><defs><clipPath id="1468ef2167"><path d="M 2.292969 2.292969 L 34.859375 2.292969 L 34.859375 34.859375 L 2.292969 34.859375 Z M 2.292969 2.292969 "/></clipPath></defs><g id="67456f3c1a"><g clip-rule="nonzero" clip-path="url(#1468ef2167)"><path style=" stroke:none;fill-rule:nonzero;fill:#ffffff;fill-opacity:1;" d="M 18.476562 2.277344 C 9.53125 2.277344 2.277344 9.53125 2.277344 18.476562 C 2.277344 27.421875 9.53125 34.671875 18.476562 34.671875 C 27.421875 34.671875 34.671875 27.421875 34.671875 18.476562 C 34.671875 9.53125 27.421875 2.277344 18.476562 2.277344 Z M 26.574219 26.375 C 26.574219 27.035156 25.835938 27.433594 25.285156 27.066406 L 13.75 19.378906 L 13.75 24.550781 C 13.75 25.671875 12.84375 26.578125 11.726562 26.578125 C 10.605469 26.578125 9.699219 25.671875 9.699219 24.550781 L 9.699219 12.402344 C 9.699219 11.28125 10.605469 10.375 11.726562 10.375 C 12.84375 10.375 13.75 11.28125 13.75 12.402344 L 13.75 17.574219 L 25.285156 9.886719 C 25.835938 9.519531 26.574219 9.910156 26.574219 10.574219 Z M 26.574219 26.375 "/></g></g></svg>