<svg xmlns="http://www.w3.org/2000/svg" xmlns:xlink="http://www.w3.org/1999/xlink" width="50" zoomAndPan="magnify" viewBox="0 0 37.5 37.499999" height="50" preserveAspectRatio="xMidYMid meet" version="1.2"><defs><clipPath id="4a3cb03c50"><path d="M 2.367188 2.367188 L 34.933594 2.367188 L 34.933594 34.933594 L 2.367188 34.933594 Z M 2.367188 2.367188 "/></clipPath></defs><g id="454490dd13"><g clip-rule="nonzero" clip-path="url(#4a3cb03c50)"><path style=" stroke:none;fill-rule:nonzero;fill:#ffffff;fill-opacity:1;" d="M 18.5 2.367188 C 17.972656 2.367188 17.445312 2.394531 16.917969 2.445312 C 16.394531 2.496094 15.871094 2.574219 15.355469 2.679688 C 14.835938 2.78125 14.324219 2.910156 13.816406 3.0625 C 13.3125 3.214844 12.816406 3.394531 12.328125 3.597656 C 11.839844 3.796875 11.363281 4.023438 10.894531 4.273438 C 10.429688 4.523438 9.976562 4.792969 9.539062 5.085938 C 9.097656 5.378906 8.675781 5.695312 8.265625 6.03125 C 7.859375 6.367188 7.46875 6.71875 7.09375 7.09375 C 6.71875 7.46875 6.367188 7.859375 6.03125 8.265625 C 5.695312 8.675781 5.378906 9.097656 5.085938 9.539062 C 4.792969 9.976562 4.523438 10.429688 4.273438 10.894531 C 4.023438 11.363281 3.796875 11.839844 3.597656 12.328125 C 3.394531 12.816406 3.214844 13.3125 3.0625 13.816406 C 2.910156 14.324219 2.78125 14.835938 2.679688 15.355469 C 2.574219 15.871094 2.496094 16.394531 2.445312 16.917969 C 2.394531 17.445312 2.367188 17.972656 2.367188 18.5 C 2.367188 19.03125 2.394531 19.554688 2.445312 20.082031 C 2.496094 20.609375 2.574219 21.128906 2.679688 21.648438 C 2.78125 22.167969 2.910156 22.679688 3.0625 23.183594 C 3.214844 23.691406 3.394531 24.1875 3.597656 24.675781 C 3.796875 25.164062 4.023438 25.640625 4.273438 26.105469 C 4.523438 26.570312 4.792969 27.023438 5.085938 27.464844 C 5.378906 27.902344 5.695312 28.328125 6.03125 28.734375 C 6.367188 29.144531 6.71875 29.535156 7.09375 29.910156 C 7.46875 30.28125 7.859375 30.636719 8.265625 30.972656 C 8.675781 31.308594 9.097656 31.621094 9.539062 31.914062 C 9.976562 32.207031 10.429688 32.480469 10.894531 32.730469 C 11.363281 32.976562 11.839844 33.203125 12.328125 33.40625 C 12.816406 33.609375 13.3125 33.785156 13.816406 33.9375 C 14.324219 34.09375 14.835938 34.21875 15.355469 34.324219 C 15.871094 34.425781 16.394531 34.503906 16.917969 34.554688 C 17.445312 34.609375 17.972656 34.632812 18.5 34.632812 C 19.03125 34.632812 19.554688 34.609375 20.082031 34.554688 C 20.609375 34.503906 21.128906 34.425781 21.648438 34.324219 C 22.167969 34.21875 22.679688 34.09375 23.183594 33.9375 C 23.691406 33.785156 24.1875 33.609375 24.675781 33.40625 C 25.164062 33.203125 25.640625 32.976562 26.105469 32.730469 C 26.570312 32.480469 27.023438 32.207031 27.464844 31.914062 C 27.902344 31.621094 28.328125 31.308594 28.734375 30.972656 C 29.144531 30.636719 29.535156 30.28125 29.910156 29.910156 C 30.28125 29.535156 30.636719 29.144531 30.972656 28.734375 C 31.308594 28.328125 31.621094 27.902344 31.914062 27.464844 C 32.207031 27.023438 32.480469 26.570312 32.730469 26.105469 C 32.976562 25.640625 33.203125 25.164062 33.40625 24.675781 C 33.609375 24.1875 33.785156 23.691406 33.9375 23.183594 C 34.09375 22.679688 34.21875 22.167969 34.324219 21.648438 C 34.425781 21.128906 34.503906 20.609375 34.554688 20.082031 C 34.609375 19.554688 34.632812 19.03125 34.632812 18.5 C 34.632812 17.972656 34.609375 17.445312 34.554688 16.917969 C 34.503906 16.394531 34.425781 15.871094 34.324219 15.355469 C 34.21875 14.835938 34.09375 14.324219 33.9375 13.816406 C 33.785156 13.3125 33.609375 12.816406 33.40625 12.328125 C 33.203125 11.839844 32.976562 11.363281 32.730469 10.894531 C 32.480469 10.429688 32.207031 9.976562 31.914062 9.539062 C 31.621094 9.097656 31.308594 8.675781 30.972656 8.265625 C 30.636719 7.859375 30.28125 7.46875 29.910156 7.09375 C 29.535156 6.71875 29.144531 6.367188 28.734375 6.03125 C 28.328125 5.695312 27.902344 5.378906 27.464844 5.085938 C 27.023438 4.792969 26.570312 4.523438 26.105469 4.273438 C 25.640625 4.023438 25.164062 3.796875 24.675781 3.597656 C 24.1875 3.394531 23.691406 3.214844 23.183594 3.0625 C 22.679688 2.910156 22.167969 2.78125 21.648438 2.679688 C 21.128906 2.574219 20.609375 2.496094 20.082031 2.445312 C 19.554688 2.394531 19.03125 2.367188 18.5 2.367188 Z M 27.71875 25.183594 L 17.347656 18.707031 L 17.347656 25.183594 L 6.644531 18.5 L 17.347656 11.816406 L 17.347656 18.292969 L 27.71875 11.816406 Z M 27.71875 25.183594 "/></g></g></svg>